<svg xmlns="http://www.w3.org/2000/svg" xmlns:xlink="http://www.w3.org/1999/xlink" viewBox="0 0 16.82 15.73"><defs><style>.cls-1{fill:none;clip-rule:evenodd;}.cls-2{clip-path:url(#clip-path);}.cls-3{fill:url(#linear-gradient);}.cls-4{fill:#384b87;fill-rule:evenodd;}.cls-5{clip-path:url(#clip-path-2);}.cls-6{fill:url(#linear-gradient-2);}.cls-7{clip-path:url(#clip-path-3);}.cls-8{fill:url(#linear-gradient-3);}</style><clipPath id="clip-path"><polygon class="cls-1" points="16.8 0 0 0 0 0.11 0.01 4.72 16.8 4.72 16.8 0"/></clipPath><linearGradient id="linear-gradient" x1="6.4" y1="-2.49" x2="7.52" y2="0.22" gradientUnits="userSpaceOnUse"><stop offset="0" stop-color="#35a9e0"/><stop offset="1" stop-color="#209ad6"/></linearGradient><clipPath id="clip-path-2"><path class="cls-1" d="M16.8,0C7.45,8.13,3.26,7.4,10.89,15.73l5.93-2.49L13.1,10.41l3.7-3.26Z"/></clipPath><linearGradient id="linear-gradient-2" x1="9.96" y1="6.52" x2="10.14" y2="9.45" xlink:href="#linear-gradient"/><clipPath id="clip-path-3"><polygon class="cls-1" points="10.89 15.73 16.82 15.73 16.82 13.24 10.89 15.73"/></clipPath><linearGradient id="linear-gradient-3" x1="13.36" y1="14.11" x2="16.48" y2="16.48" xlink:href="#linear-gradient"/></defs><g id="Layer_2" data-name="Layer 2"><g id="Layer_1-2" data-name="Layer 1"><g class="cls-2"><rect class="cls-3" width="16.8" height="4.72"/></g><polygon class="cls-4" points="0 7.45 5.63 15.73 0 15.73 0 7.45"/><g class="cls-5"><rect class="cls-6" x="3.26" y="0.01" width="13.57" height="15.73"/></g><g class="cls-7"><rect class="cls-8" x="10.89" y="13.24" width="5.94" height="2.49"/></g></g></g></svg>