<?xml version="1.0" encoding="utf-8"?>
<!-- Generator: Adobe Illustrator 23.0.6, SVG Export Plug-In . SVG Version: 6.00 Build 0)  -->
<svg version="1.1" id="Layer_1" xmlns="http://www.w3.org/2000/svg" xmlns:xlink="http://www.w3.org/1999/xlink" x="0px" y="0px"
	 viewBox="0 0 254 62" style="enable-background:new 0 0 254 62;" xml:space="preserve">
<style type="text/css">
	.st0{display:none;}
	.st1{display:inline;fill:#009247;}
	.st2{fill:#305570;}
</style>
<g class="st0">
	<rect class="st1" width="254" height="62"/>
</g>
<title>ANET-Logo-White</title>
<g>
	<path class="st2" d="M14.54,24.62h0.13l3.26,9.28h-6.61L14.54,24.62 M18.49,45.93h12.33v-1.41c-2.38-0.29-3.11-0.48-4.66-4.74
		c-1.71-4.6-3.68-9.93-5.58-15.24l-2.96-8.37l-2.24,0.61L6.29,39.93c-1.57,4.06-2.16,4.27-4.86,4.6v1.41h10.12v-1.42l-1.09-0.15
		c-2.08-0.23-2.16-0.71-1.5-2.98c0.59-1.95,1.18-3.93,1.73-5.24h7.98c0.68,1.65,1.54,4.01,2.13,5.52c0.76,1.94,0.53,2.43-1.12,2.68
		l-1.18,0.17L18.49,45.93z"/>
	<path class="st2" d="M43.72,30.27c0-1.65-0.22-1.93-1.39-2.13l-1.4-0.22v-1.31c2.25-0.11,6.17-0.55,8.28-0.84v15.3
		c0,1.84,0.18,2.36,1.61,2.36h1.4v1.39c-2.75,0.42-5.47,0.98-8.16,1.67l-0.34-0.29v-2.91c-0.85,0.63-1.61,1.21-2.6,1.84
		c-1.16,0.82-2.53,1.27-3.95,1.32c-3.76,0-5.83-2.5-5.83-5.95V30.27c0-1.65-0.22-1.93-1.38-2.13l-1.22-0.22v-1.31
		c2.07-0.11,5.76-0.55,8.11-0.84v13.59c0,2.65,1.34,3.68,3.04,3.68c1.44-0.09,2.8-0.7,3.83-1.72L43.72,30.27"/>
	<path class="st2" d="M60.32,39.29c0,3.45,1.7,4.1,2.52,4.1c0.83-0.03,1.64-0.28,2.35-0.73l0.62,1.34l-3.87,1.95
		c-0.53,0.27-1.11,0.43-1.7,0.47c-3.48,0-5.41-1.51-5.41-5.52V28.42h-2.89l-0.31-0.6l1.47-1.69h1.76v-2.76l4.68-3.55l0.78,0.38v5.92
		h4.46c0.56,0.64,0.49,1.62-0.16,2.18c-0.05,0.04-0.1,0.08-0.16,0.12h-4.14V39.29"/>
	<path class="st2" d="M74.88,28.47c1.61-1.7,3.81-2.73,6.15-2.88c4.09,0,6.36,2.57,6.36,6.81v9.13c0,2.52,0.22,2.7,2.76,3v1.41
		H79.53v-1.41c2.18-0.3,2.35-0.47,2.35-3V32.9c0-2.76-1.55-3.96-3.43-3.96c-1.34,0-2.62,0.53-3.56,1.48v11.11
		c0,2.52,0.21,2.7,2.09,3v1.41H66.13v-1.41c3.01-0.3,3.24-0.47,3.24-3V19.78c0-2.67-0.08-2.76-2.93-2.9v-1.3
		c2-0.31,5.46-0.92,8.44-1.58L74.88,28.47"/>
	<path class="st2" d="M97.06,34.72c0-4.88,1.91-7.26,3.74-7.26c2.88,0,4.6,3.47,4.6,9.48c0,6.51-2.02,7.64-3.68,7.64
		c-2.9,0-4.7-4.19-4.7-9.85 M101.45,25.61c-5.85-0.03-10.61,4.68-10.65,10.53c0,0.13,0,0.25,0,0.38c0,4.81,3.47,9.92,10.4,9.92
		c5.19,0,10.38-3.52,10.38-10.86c0.09-5.42-4.23-9.89-9.65-9.98c-0.16,0-0.31,0-0.47,0"/>
	<path class="st2" d="M121.26,41.52c0,2.51,0.22,2.7,3.68,3v1.41h-12.25v-1.41c2.82-0.3,3.06-0.48,3.06-3V31.5
		c0-2.76-0.08-2.76-2.98-3.11v-1.17c2.63-0.37,5.52-0.98,8.49-1.62v4.47h0.09c0.61-1.03,1.31-1.99,2.11-2.88
		c0.73-0.92,1.81-1.5,2.98-1.59c1.59-0.08,2.94,1.15,3.02,2.74c0,0.01,0,0.02,0,0.02c-0.02,1.38-0.86,2.61-2.13,3.14
		c-0.46,0.21-1,0.14-1.39-0.18c-0.63-0.55-1.41-0.87-2.24-0.92c-0.76,0-1.67,0.34-2.42,2.22L121.26,41.52"/>
	<path class="st2" d="M133.01,31.5c0-2.76-0.08-2.76-2.97-3.11v-1.17c2.65-0.37,5.63-0.98,8.48-1.62v15.87
		c0,2.58,0.22,2.76,3.09,3.05v1.41H129.9v-1.41c2.88-0.3,3.1-0.48,3.1-3.05L133.01,31.5 M138.64,18.49c0.02,1.78-1.42,3.24-3.2,3.26
		c-0.02,0-0.04,0-0.06,0c-1.8,0-3.26-1.46-3.27-3.26c0.01-1.8,1.47-3.26,3.27-3.27c1.79-0.02,3.25,1.42,3.27,3.21
		C138.64,18.45,138.64,18.47,138.64,18.49"/>
	<path class="st2" d="M159.51,26.12l0.4,0.64l-10.35,17.26h3.57c3.1,0,4.31-0.56,5.81-3.12l0.66-1.12l1.62,0.6
		c-0.81,2.24-1.39,3.91-2.07,5.52H142.9l-0.45-0.66l10.68-17.25h-3.17c-2.98,0-3.77,0.68-4.81,2.91l-0.64,1.38l-1.62-0.61
		c0.53-1.7,1.24-4.6,1.67-6.53h0.99c0.23,0.66,0.72,0.92,2.43,0.92h11.54"/>
	<path class="st2" d="M166.42,33.05c0.27-3.05,1.93-5.39,3.6-5.39c1.67,0,3.15,2.36,3.15,4.19c0,0.92-0.17,1.07-0.85,1.07
		L166.42,33.05 M177.6,40.7c-1.4,1.09-3.11,1.7-4.88,1.74c-3.43,0-6.49-2.33-6.49-7.36c4.47-0.17,10.47-0.59,11.09-0.73
		c0.92-0.17,1.03-0.28,1.03-1.96c-0.15-3.78-3.24-6.77-7.02-6.79c-5.52,0-10.35,4.83-10.35,11.32c-0.18,5.08,3.8,9.34,8.87,9.51
		c0.23,0.01,0.47,0.01,0.7,0c1.57,0,5.1-0.92,7.66-4.83L177.6,40.7z"/>
	<path class="st2" d="M179.81,42.91c0-1.9,1.54-3.43,3.43-3.43c1.9,0,3.43,1.54,3.43,3.43l0,0c0,1.9-1.54,3.43-3.43,3.43
		C181.34,46.34,179.81,44.81,179.81,42.91"/>
	<path class="st2" d="M215.73,46.22h-2.76L195.1,24.28H195v9.33c-0.04,2.89,0.11,5.77,0.44,8.64c0.24,1.56,1.36,2.15,4.35,2.28v1.41
		h-11.18v-1.42c2.25-0.08,3.33-0.72,3.54-2.28c0.37-2.86,0.52-5.75,0.47-8.64v-8.93c0-2.87,0-3.98-0.82-5.05s-1.99-1.38-3.83-1.53
		v-1.41h7.83l17.43,20.24h0.09v-7.91c0.05-2.88-0.11-5.76-0.45-8.62c-0.22-1.58-1.36-2.14-4.34-2.29v-1.42h11.18v1.41
		c-2.26,0.08-3.33,0.7-3.56,2.29c-0.34,2.86-0.49,5.74-0.44,8.62v17.21"/>
	<path class="st2" d="M222.69,33.05c0.26-3.05,1.93-5.39,3.59-5.39s3.15,2.36,3.15,4.19c0,0.92-0.17,1.07-0.86,1.07L222.69,33.05
		 M233.86,40.7c-1.4,1.09-3.11,1.7-4.88,1.74c-3.41,0-6.44-2.33-6.44-7.36c4.45-0.17,10.45-0.59,11.04-0.73
		c0.92-0.17,1.03-0.28,1.03-1.96c-0.14-3.78-3.24-6.77-7.02-6.79c-5.52,0-10.36,4.83-10.36,11.32c-0.17,5.08,3.8,9.33,8.88,9.51
		c0.23,0.01,0.47,0.01,0.7,0c1.58,0,5.11-0.92,7.66-4.83L233.86,40.7z"/>
	<path class="st2" d="M243.38,39.29c0,3.45,1.69,4.1,2.52,4.1c0.83-0.03,1.63-0.29,2.33-0.73l0.63,1.34l-3.87,1.95
		c-0.53,0.27-1.12,0.43-1.71,0.47c-3.46,0-5.43-1.51-5.43-5.52V28.42h-2.86l-0.31-0.6l1.47-1.69h1.73v-2.76l4.71-3.55l0.77,0.38
		v5.92h4.45c0.56,0.64,0.49,1.62-0.16,2.18c-0.05,0.04-0.1,0.08-0.16,0.12h-4.14v10.87"/>
	<path class="st2" d="M248.74,24.48c-1.25,0-2.26-1.01-2.26-2.26c0-0.4,0.11-0.79,0.3-1.13c0.2-0.35,0.49-0.64,0.84-0.83
		c0.7-0.4,1.56-0.4,2.25,0c0.35,0.19,0.63,0.48,0.83,0.83c0.62,1.08,0.25,2.47-0.83,3.09C249.52,24.37,249.13,24.48,248.74,24.48
		 M248.74,24.14c0.32,0,0.64-0.09,0.92-0.25c0.3-0.16,0.54-0.41,0.71-0.7c0.18-0.29,0.26-0.63,0.26-0.98
		c-0.01-0.32-0.09-0.64-0.25-0.92c-0.17-0.29-0.41-0.53-0.71-0.7c-0.28-0.16-0.6-0.25-0.92-0.26c-0.32,0-0.64,0.09-0.92,0.26
		c-0.3,0.16-0.54,0.41-0.71,0.7c-0.16,0.28-0.25,0.6-0.26,0.92c-0.02,0.69,0.36,1.34,0.98,1.67c0.28,0.16,0.6,0.25,0.92,0.25
		 M248.33,23.56h-0.44V20.8h0.92c0.17-0.01,0.34,0.02,0.49,0.09c0.11,0.06,0.2,0.16,0.26,0.27c0.06,0.12,0.09,0.25,0.09,0.39
		c0,0.16-0.05,0.32-0.13,0.46c-0.1,0.15-0.24,0.26-0.4,0.33c0.13,0.11,0.23,0.24,0.3,0.4l0.42,0.8h-0.5l-0.36-0.67l-0.08-0.17
		c-0.1-0.18-0.17-0.28-0.22-0.28h-0.32L248.33,23.56z M248.33,22.1h0.29c0.16,0.02,0.31-0.04,0.41-0.16
		c0.08-0.1,0.12-0.22,0.12-0.35c0.02-0.07,0.02-0.14,0-0.21c-0.03-0.06-0.08-0.12-0.14-0.16c-0.1-0.05-0.21-0.07-0.32-0.06h-0.32
		L248.33,22.1z"/>
</g>
</svg>
