<svg xmlns="http://www.w3.org/2000/svg" width="75" height="75" viewBox="0 0 75 75"><defs><style>.a{fill:#fff;}.b{fill:#707070;}</style></defs><g transform="translate(-906 -2838)"><rect class="a" width="75" height="75" transform="translate(906 2838)"/><g transform="translate(-20718 2818)"><g transform="translate(21644 48.117)"><path class="b" d="M17.942,0A17.942,17.942,0,1,0,35.885,17.942,17.932,17.932,0,0,0,17.942,0Zm0,34.834A16.891,16.891,0,1,1,34.834,17.942,16.91,16.91,0,0,1,17.942,34.834Z"/><path class="b" d="M128.418,75.085a67.287,67.287,0,0,1-6.443,9.374,9.183,9.183,0,0,0,4.887,14.753,10.751,10.751,0,0,0,5.111,0,9.05,9.05,0,0,0,4.906-3.086,6.519,6.519,0,0,0,3.533-5.19c.029-.289.061-.589.1-.893a.526.526,0,0,0-1.044-.124c-.037.311-.071.619-.1.914a5.494,5.494,0,0,1-9.141,3.553l1.179-1.179a4.645,4.645,0,0,0,3.412,1.093.526.526,0,1,0-.094-1.047,3.584,3.584,0,0,1-2.57-.794l1.512-1.512a3.9,3.9,0,0,0,2.807.866.526.526,0,1,0-.094-1.047,2.825,2.825,0,0,1-1.961-.57l1.488-1.488a2.874,2.874,0,0,0,1.974.559.526.526,0,1,0-.094-1.047,1.815,1.815,0,0,1-1.123-.269l1.657-1.657a.526.526,0,0,0-.743-.743l-1.657,1.657a1.814,1.814,0,0,1-.269-1.122.526.526,0,1,0-1.047-.095,2.874,2.874,0,0,0,.559,1.974l-1.488,1.488a2.826,2.826,0,0,1-.57-1.961.526.526,0,0,0-1.047-.095,3.9,3.9,0,0,0,.866,2.807l-1.512,1.511a3.584,3.584,0,0,1-.794-2.57.526.526,0,0,0-1.047-.095,4.646,4.646,0,0,0,1.093,3.412l-1.179,1.178a5.494,5.494,0,0,1,3.553-9.141,47.8,47.8,0,0,0,7.754-1.423c-.267.974-.637,2.479-.961,4.36a.526.526,0,0,0,1.036.178,44.885,44.885,0,0,1,.982-4.415.957.957,0,0,0-1.18-1.18,45.4,45.4,0,0,1-4.9,1.064,67.182,67.182,0,0,1-5.347-8,1.148,1.148,0,0,0-2,0Zm1,.466a.091.091,0,0,1,.085.05,68.032,68.032,0,0,0,5.072,7.66c-.575.078-1.15.144-1.643.193a6.546,6.546,0,0,0-4.195,10.933l-1.53,1.53a.526.526,0,0,0,.743.743l1.529-1.529a6.621,6.621,0,0,0,5.2,1.67,8.116,8.116,0,0,1-2.954,1.391,9.7,9.7,0,0,1-4.609,0,8.132,8.132,0,0,1-4.325-13.065,68.37,68.37,0,0,0,6.546-9.525A.091.091,0,0,1,129.418,75.551Z" transform="translate(-111.476 -69.278)"/></g><circle class="b" cx="2" cy="2" r="2" transform="translate(21644 48)"/><circle class="b" cx="2" cy="2" r="2" transform="translate(21676 48)"/><circle class="b" cx="3.5" cy="3.5" r="3.5" transform="translate(21658 39)"/><circle class="b" cx="1.5" cy="1.5" r="1.5" transform="translate(21648 37)"/><circle class="b" cx="1.5" cy="1.5" r="1.5" transform="translate(21673 36)"/><circle class="b" cx="1" cy="1" r="1" transform="translate(21661 31)"/></g></g></svg>