<svg xmlns="http://www.w3.org/2000/svg" width="75" height="75" viewBox="0 0 75 75"><defs><style>.a{fill:#fff;}.b,.c{fill:#707070;}.c{stroke:#fff;stroke-width:0.4px;}</style></defs><g transform="translate(-735 -2667)"><rect class="a" width="75" height="75" transform="translate(735 2667)"/><g transform="translate(-20715.127 2807.683)"><g transform="translate(21470.545 -128.682)"><path class="b" d="M26.564,16.225l-1.457-.841a2.358,2.358,0,0,1,0-4.084l1.457-.841A.782.782,0,0,0,26.85,9.39L23.711,3.952a.782.782,0,0,0-1.068-.286l-1.457.841a2.357,2.357,0,0,1-3.537-2.042V.782A.782.782,0,0,0,16.867,0H10.588a.782.782,0,0,0-.782.782V2.464A2.357,2.357,0,0,1,6.27,4.507L4.813,3.665a.782.782,0,0,0-1.068.286L.605,9.39a.782.782,0,0,0,.286,1.068l1.457.841a2.358,2.358,0,0,1,0,4.084l-1.457.841a.782.782,0,0,0-.286,1.068l3.139,5.438a.782.782,0,0,0,1.068.286l1.457-.841a2.357,2.357,0,0,1,3.537,2.042V25.9a.782.782,0,0,0,.782.782h6.279a.782.782,0,0,0,.782-.782V24.218a2.358,2.358,0,0,1,3.537-2.042l1.457.841a.782.782,0,0,0,1.068-.286l3.14-5.438A.782.782,0,0,0,26.564,16.225Zm-3.817,5.048-.78-.451a3.92,3.92,0,0,0-5.882,3.4v.9H11.37v-.9a3.92,3.92,0,0,0-5.882-3.4l-.78.451L2.35,17.188l.78-.451a3.921,3.921,0,0,0,0-6.792l-.78-.451L4.708,5.41l.78.451a3.92,3.92,0,0,0,5.882-3.4v-.9h4.716v.9a3.92,3.92,0,0,0,5.882,3.4l.78-.451,2.358,4.084-.78.451a3.921,3.921,0,0,0,0,6.792l.78.451Zm0,0" transform="translate(0)"/><path class="b" d="M154.8,151a5.472,5.472,0,1,0,5.471,5.472A5.478,5.478,0,0,0,154.8,151Zm0,9.381a3.909,3.909,0,1,1,3.908-3.909A3.913,3.913,0,0,1,154.8,160.381Zm0,0" transform="translate(-141.068 -143.131)"/></g><g transform="translate(20931.436 -608.008)"><path class="b" d="M542.35,524.274v9.44h1.588v-9.44" transform="translate(-2.249 -3.524)"/><path class="c" d="M530.691,508.385l10.3,8.5h21.966l5.085-5.135.019-.017,0,0,.247-.2.106-.078.644-.375a5.55,5.55,0,0,1,1.011-.423,3.916,3.916,0,0,1,1.132-.178,3.024,3.024,0,0,1,1.043.182c.728.265,1.613.567,2.534.873,2.765.92,5.87,1.877,5.875,1.879l.781-2.529-.061-.019c-.305-.094-1.709-.53-3.364-1.061-.827-.266-1.717-.555-2.564-.838s-1.649-.558-2.3-.793a5.649,5.649,0,0,0-1.948-.341,6.575,6.575,0,0,0-1.951.307,8.6,8.6,0,0,0-2.09.988,7.552,7.552,0,0,0-.844.621l.04-.034-4.335,4.525H541.6l-9.745-8.227-1.165,2.377Z"/><path class="c" d="M531.418,525.937h49.761V523.29H531.418" transform="translate(-0.14 -3.334)"/><path class="b" d="M580.174,524.274v9.44h1.588v-9.44" transform="translate(-9.546 -3.524)"/></g></g></g></svg>