<svg xmlns="http://www.w3.org/2000/svg" width="75" height="75" viewBox="0 0 75 75"><defs><style>.a{fill:#fff;}.b{fill:#707070;stroke:#fff;stroke-width:0.3px;}</style></defs><g transform="translate(-1078 -2838)"><rect class="a" width="75" height="75" transform="translate(1078 2838)"/><g transform="translate(-20719.205 2815.74)"><g transform="translate(21797.205 -27.125)"><path class="b" d="M55.172,80H19.561A3.565,3.565,0,0,0,16,83.561v24.216a3.565,3.565,0,0,0,3.561,3.561H55.172a3.565,3.565,0,0,0,3.561-3.561V83.561A3.565,3.565,0,0,0,55.172,80Zm0,29.913H19.561a2.139,2.139,0,0,1-2.137-2.137v-.714a3.542,3.542,0,0,0,2.137.714H22.41v-1.424H19.561a2.139,2.139,0,0,1-2.137-2.137V103.5a3.542,3.542,0,0,0,2.137.714H55.172a3.542,3.542,0,0,0,2.137-.714v.714a2.139,2.139,0,0,1-2.137,2.137h-3.4v1.424h3.4a3.542,3.542,0,0,0,2.137-.714v.714a2.139,2.139,0,0,1-2.137,2.137Zm2.137-9.259a2.139,2.139,0,0,1-2.137,2.137H19.561a2.139,2.139,0,0,1-2.137-2.137V83.561a2.139,2.139,0,0,1,2.137-2.137H55.172a2.139,2.139,0,0,1,2.137,2.137Z"/><path class="b" d="M66.137,131.263v2.849a.713.713,0,0,1-.712.712H64v1.424h1.424a.713.713,0,0,1,.712.712v2.849a.713.713,0,0,1-.712.712H64v1.424h1.424a.713.713,0,0,1,.712.712v1.424h1.424v-1.424a.713.713,0,0,1,.712-.712H69.7v-1.424H68.273a.713.713,0,0,1-.712-.712v-2.849a.713.713,0,0,1,.712-.712H69.7v-1.424H68.273a.713.713,0,0,1-.712-.712v-2.849C66.146,131.252,67.6,131.248,66.137,131.263Z" transform="translate(-43.91 -43.429)"/><path class="b" d="M66.137,131.263v2.849a.713.713,0,0,1-.712.712H64v1.424h1.424a.713.713,0,0,1,.712.712v2.849a.713.713,0,0,1-.712.712H64v1.424h1.424a.713.713,0,0,1,.712.712v1.424h1.424v-1.424a.713.713,0,0,1,.712-.712H69.7v-1.424H68.273a.713.713,0,0,1-.712-.712v-2.849a.713.713,0,0,1,.712-.712H69.7v-1.424H68.273a.713.713,0,0,1-.712-.712v-2.849C66.146,131.252,67.6,131.248,66.137,131.263Z" transform="translate(-34.439 -43.429)"/><path class="b" d="M66.137,131.263v2.849a.713.713,0,0,1-.712.712H64v1.424h1.424a.713.713,0,0,1,.712.712v2.849a.713.713,0,0,1-.712.712H64v1.424h1.424a.713.713,0,0,1,.712.712v1.424h1.424v-1.424a.713.713,0,0,1,.712-.712H69.7v-1.424H68.273a.713.713,0,0,1-.712-.712v-2.849a.713.713,0,0,1,.712-.712H69.7v-1.424H68.273a.713.713,0,0,1-.712-.712v-2.849C66.146,131.252,67.6,131.248,66.137,131.263Z" transform="translate(-24.967 -43.429)"/><path class="b" d="M66.137,131.263v2.849a.713.713,0,0,1-.712.712H64v1.424h1.424a.713.713,0,0,1,.712.712v2.849a.713.713,0,0,1-.712.712H64v1.424h1.424a.713.713,0,0,1,.712.712v1.424h1.424v-1.424a.713.713,0,0,1,.712-.712H69.7v-1.424H68.273a.713.713,0,0,1-.712-.712v-2.849a.713.713,0,0,1,.712-.712H69.7v-1.424H68.273a.713.713,0,0,1-.712-.712v-2.849C66.146,131.252,67.6,131.248,66.137,131.263Z" transform="translate(-15.496 -43.429)"/></g><g transform="translate(21846.203 46.544) rotate(180)"><g transform="translate(0 -12)"><path class="b" d="M0,0H1.609V9.469H0Z" transform="translate(0.219 13.815)"/><path class="b" d="M14.57,7.212V9.9h1.609V7.212l1.406,1.607L18.8,7.759,15.374,3.848,11.952,7.759l1.212,1.061Z" transform="translate(-14.351 2.651)"/><path class="b" d="M0,0H1.609V9.469H0Z" transform="translate(23.923 13.815)"/><path class="b" d="M0,0H1.609V9.469H0Z" transform="translate(11.923 13.815)"/><path class="b" d="M366.57,7.212V9.9h1.609V7.212l1.406,1.607L370.8,7.759l-3.422-3.911-3.422,3.911,1.212,1.061Z" transform="translate(-342.648 2.651)"/><path class="b" d="M366.57,7.212V9.9h1.609V7.212l1.406,1.607L370.8,7.759l-3.422-3.911-3.422,3.911,1.212,1.061Z" transform="translate(-354.648 2.651)"/></g></g></g></g></svg>