<svg xmlns="http://www.w3.org/2000/svg" width="75" height="75" viewBox="0 0 75 75"><defs><style>.a{fill:#fff;}.b{fill:#707070;stroke:#fff;stroke-width:0.3px;}</style></defs><g transform="translate(-1078 -2667)"><rect class="a" width="75" height="75" transform="translate(1078 2667)"/><g transform="translate(1091 2681)"><g transform="translate(0 0)"><path class="b" d="M290.987,428.948a.948.948,0,0,0,.948.948h19.052a.948.948,0,1,0,0-1.9H291.935A.948.948,0,0,0,290.987,428.948Z" transform="translate(-263.407 -387.433)"/><path class="b" d="M297.987,428.948a.948.948,0,0,0,.948.948h12.807a.948.948,0,1,0,0-1.9H298.935A.948.948,0,0,0,297.987,428.948Z" transform="translate(-264.161 -382.08)"/><path class="b" d="M.948,429.9H20a.948.948,0,1,0,0-1.9H.948a.948.948,0,1,0,0,1.9Z" transform="translate(0 -387.433)"/><path class="b" d="M.948,429.9H13.753a.948.948,0,1,0,0-1.9H.948a.948.948,0,1,0,0,1.9Z" transform="translate(0 -382.08)"/><path class="b" d="M84.178,28.008a.947.947,0,0,0,1.295.347l3.716-2.145-.616,2.3A.948.948,0,1,0,90.4,29l1.107-4.132,2.183-1.26L99.4,26.9v2.521l-3.025,3.025a.948.948,0,1,0,1.34,1.34L99.4,32.105V36.4a.948.948,0,0,0,1.9,0V32.105l1.684,1.684a.948.948,0,1,0,1.34-1.34L101.3,29.424V26.917l5.719-3.3,2.171,1.254L110.294,29a.948.948,0,0,0,1.831-.491l-.616-2.3,3.716,2.145a.948.948,0,1,0,.948-1.642l-3.716-2.145,2.3-.616a.948.948,0,0,0-.491-1.831l-4.132,1.107-2.171-1.254v-6.6l2.171-1.254,4.132,1.107a.948.948,0,1,0,.491-1.831l-2.3-.616,3.716-2.145a.948.948,0,1,0-.948-1.642l-3.716,2.145.616-2.3a.948.948,0,0,0-1.831-.491l-1.107,4.132L107,13.736,101.3,10.441V7.92l3.025-3.025a.948.948,0,0,0-1.34-1.34L101.3,5.239V.948a.948.948,0,1,0-1.9,0V5.239L97.717,3.555A.948.948,0,0,0,96.376,4.9L99.4,7.92v2.535l-5.695,3.288-2.2-1.267L90.4,8.343a.948.948,0,1,0-1.831.491l.616,2.3L85.473,8.989a.948.948,0,0,0-.948,1.642l3.716,2.145-2.3.616a.948.948,0,1,0,.491,1.831l4.132-1.107,2.2,1.267V21.96l-2.2,1.267L86.431,22.12a.948.948,0,0,0-.491,1.831l2.3.616-3.716,2.145a.948.948,0,0,0-.347,1.295ZM95.59,22.514l3.811-2.2v4.4Zm5.707,2.214V20.314l3.823,2.207Zm4.771-3.849-3.823-2.207,3.823-2.207v4.415Zm-.96-6.05-3.811,2.2v-4.4ZM99.4,12.643V17.03l-3.8-2.194Zm-4.747,3.835,3.8,2.194-3.8,2.194V16.478Z" transform="translate(-76.085 0)"/><path class="b" d="M246.948,428a.948.948,0,1,0,.67.278A.955.955,0,0,0,246.948,428Z" transform="translate(-222.684 -387.433)"/><path class="b" d="M246.948,428a.948.948,0,1,0,.67.278A.955.955,0,0,0,246.948,428Z" transform="translate(-227.145 -382.08)"/><path class="b" d="M246.948,428a.948.948,0,1,0,.67.278A.955.955,0,0,0,246.948,428Z" transform="translate(-218.222 -382.08)"/></g></g></g></svg>