<svg xmlns="http://www.w3.org/2000/svg" width="75" height="75" viewBox="0 0 75 75"><defs><style>.a{fill:#fff;}.b{fill:#707070;stroke:#fff;}</style></defs><g transform="translate(-1249 -2667)"><rect class="a" width="75" height="75" transform="translate(1249 2667)"/><g transform="translate(1263 2684.152)"><g transform="translate(0 3.848)"><rect class="b" width="47.547" height="2.972" transform="translate(0 26.03)"/><rect class="b" width="2.972" height="10.099" transform="translate(5.943 31.974)"/><path class="b" d="M16.785,10.06v4.96h2.972V10.06l2.6,2.967,2.238-1.958L18.271,3.848l-6.319,7.221,2.238,1.958Z" transform="translate(-10.842 -3.848)"/><rect class="b" width="2.972" height="2.972" transform="translate(5.943 20.087)"/><rect class="b" width="2.972" height="2.972" transform="translate(5.943 14.144)"/><rect class="b" width="2.972" height="10.099" transform="translate(22.288 31.974)"/><path class="b" d="M192.785,10.06v4.96h2.972V10.06l2.6,2.967,2.238-1.958-6.319-7.221-6.319,7.221,2.238,1.958Z" transform="translate(-170.498 -12.848)"/><rect class="b" width="2.972" height="2.972" transform="translate(22.288 20.087)"/><rect class="b" width="2.972" height="2.972" transform="translate(22.288 13.144)"/><rect class="b" width="2.972" height="10.099" transform="translate(38.634 31.974)"/><path class="b" d="M368.785,10.06v4.96h2.972V10.06l2.6,2.967,2.238-1.958-6.319-7.221-6.319,7.221,2.238,1.958Z" transform="translate(-330.154 -3.848)"/><rect class="b" width="2.972" height="2.972" transform="translate(38.632 20.087)"/><rect class="b" width="2.972" height="2.972" transform="translate(38.632 14.144)"/><rect class="b" width="2.972" height="2.972" transform="translate(22.287 7.087)"/></g></g></g></svg>