<svg xmlns="http://www.w3.org/2000/svg" width="75" height="75" viewBox="0 0 75 75"><defs><style>.a{fill:#fff;}.b,.c{fill:#707070;}.c{stroke:#fff;}</style></defs><g transform="translate(-735 -2838)"><rect class="a" width="75" height="75" transform="translate(735 2838)"/><g transform="translate(-20890 2977)"><g transform="translate(21651 -127)"><path class="b" d="M147.94,25.33V19.616h.853a9.393,9.393,0,0,0,9.382-9.381.853.853,0,0,0-.853-.853h-1.706a9.373,9.373,0,0,0-7.676,4.008V7.676h.853A6.831,6.831,0,0,0,155.616.853.853.853,0,0,0,154.763,0h-1.706a6.823,6.823,0,0,0-5.97,3.527A6.823,6.823,0,0,0,141.117,0h-1.706a.853.853,0,0,0-.853.853,6.831,6.831,0,0,0,6.823,6.823h.853V13.39a9.373,9.373,0,0,0-7.676-4.008h-1.706a.853.853,0,0,0-.853.853,9.393,9.393,0,0,0,9.382,9.381h.853V25.33C148.227,25.3,146.335,25.33,147.94,25.33Zm7.676-14.243h.806a7.687,7.687,0,0,1-7.629,6.823h-.806A7.687,7.687,0,0,1,155.616,11.087Zm-2.559-9.381h.782a5.126,5.126,0,0,1-5.046,4.264h-.782A5.126,5.126,0,0,1,153.057,1.706ZM145.382,5.97a5.126,5.126,0,0,1-5.046-4.264h.782a5.126,5.126,0,0,1,5.046,4.264Zm0,11.94a7.687,7.687,0,0,1-7.629-6.823h.806a7.687,7.687,0,0,1,7.629,6.823Z" transform="translate(-136)"/></g><g transform="translate(21646 -103.918)"><g transform="translate(-5 0)"><path class="c" d="M39.134,72.774a3.1,3.1,0,0,0-1.379-.7V66.492c0-3-2.709-5.447-6.04-5.447H6.459c-3.33,0-6.04,2.443-6.04,5.447v5.581a3.1,3.1,0,0,0-1.379.7c-1.067.97-1.051,2.463-1.037,4.044.006.714,0,7.1,0,7.1A1.153,1.153,0,0,0-.789,85.012H.419V88.28a1.153,1.153,0,0,0,1.208,1.089A1.153,1.153,0,0,0,2.835,88.28V85.012h32.5V88.28a1.214,1.214,0,0,0,2.416,0V85.012h1.208a1.153,1.153,0,0,0,1.208-1.089c0-.122,0-6.552,0-7.1C40.188,75.237,40.2,73.744,39.134,72.774Zm-36.3-6.282a3.464,3.464,0,0,1,3.624-3.268H31.715a3.464,3.464,0,0,1,3.624,3.268v5.447H32.923V68.671A3.464,3.464,0,0,0,29.3,65.4H21.971a3.839,3.839,0,0,0-2.416.835,3.838,3.838,0,0,0-2.416-.835H8.874a3.464,3.464,0,0,0-3.624,3.268v3.268H2.835Zm27.673,2.179v3.268H20.763V68.671a1.155,1.155,0,0,1,1.208-1.089H29.3A1.155,1.155,0,0,1,30.508,68.671Zm-12.16,0v3.268H7.667V68.671a1.155,1.155,0,0,1,1.208-1.089H17.14A1.155,1.155,0,0,1,18.347,68.671ZM37.755,82.833H.419V80.654H37.755Zm0-6.032c-.006.692,0,.532,0,1.674H.419c0-1.082,0-1,0-1.674C.395,74.4.5,74.118,1.627,74.118H36.547a1.487,1.487,0,0,1,.872.191C37.777,74.635,37.767,75.786,37.759,76.8Z" transform="translate(2 -61.045)"/></g></g></g></g></svg>