<svg xmlns="http://www.w3.org/2000/svg" width="75" height="75" viewBox="0 0 75 75"><defs><style>.a,.b,.c,.d,.e{fill:#fff;}.c,.d,.e{stroke:#707070;}.c{stroke-width:2px;}.d{stroke-width:1.6px;}.f,.g{stroke:none;}.g{fill:#707070;}.h{fill:none;}</style></defs><g transform="translate(-906 -2667)"><rect class="a" width="75" height="75" transform="translate(906 2667)"/><g transform="translate(-20548 2647)"><g class="b" transform="translate(21464 39)"><path class="f" d="M 54.19990158081055 33.20020294189453 L 0.8000004291534424 33.20020294189453 L 0.8000004291534424 9.800003051757812 L 7.201942920684814 9.800003051757812 C 7.200716018676758 9.866728782653809 7.200100421905518 9.933365821838379 7.200100421905518 9.999902725219727 C 7.200100421905518 15.95499324798584 12.0449104309082 20.79980278015137 18 20.79980278015137 C 23.9550895690918 20.79980278015137 28.79990005493164 15.95499324798584 28.79990005493164 9.999902725219727 C 28.79990005493164 9.933376312255859 28.79928398132324 9.866714477539062 28.79805755615234 9.800003051757812 L 54.19990158081055 9.800003051757812 L 54.19990158081055 33.20020294189453 Z"/><path class="g" d="M 53.39989852905273 32.40020370483398 L 53.39989852905273 10.60000324249268 L 29.58456802368164 10.60000324249268 C 29.27097320556641 16.71816825866699 24.19476699829102 21.59980392456055 18 21.59980392456055 C 11.8052339553833 21.59980392456055 6.729027271270752 16.71816825866699 6.415431976318359 10.60000324249268 L 1.600000381469727 10.60000324249268 L 1.600000381469727 32.40020370483398 L 53.39989852905273 32.40020370483398 M 54.99990081787109 34.00020217895508 L 4.089355343239731e-07 34.00020217895508 L 4.089355343239731e-07 9.000002861022949 L 8.049520492553711 9.000002861022949 C 8.017060279846191 9.327102661132812 8.000100135803223 9.663143157958984 8.000100135803223 9.999902725219727 C 8.000100135803223 15.51386260986328 12.48604011535645 19.99980354309082 18 19.99980354309082 C 23.51395988464355 19.99980354309082 27.99990081787109 15.51386260986328 27.99990081787109 9.999902725219727 C 27.99990081787109 9.666792869567871 27.9832706451416 9.33037281036377 27.95047950744629 9.000002861022949 L 54.99990081787109 9.000002861022949 L 54.99990081787109 33.99920272827148 L 54.99990081787109 34.00020217895508 Z"/></g><g class="c" transform="translate(21475 42)"><circle class="f" cx="7" cy="7" r="7"/><circle class="h" cx="7" cy="7" r="6"/></g><g class="d" transform="translate(21502 35)"><circle class="f" cx="5" cy="5" r="5"/><circle class="h" cx="5" cy="5" r="4.2"/></g><g class="e" transform="translate(21464 75)"><circle class="f" cx="2.5" cy="2.5" r="2.5"/><circle class="h" cx="2.5" cy="2.5" r="2"/></g><g class="e" transform="translate(21477 75)"><circle class="f" cx="2.5" cy="2.5" r="2.5"/><circle class="h" cx="2.5" cy="2.5" r="2"/></g><g class="e" transform="translate(21489 75)"><circle class="f" cx="2.5" cy="2.5" r="2.5"/><circle class="h" cx="2.5" cy="2.5" r="2"/></g><g class="e" transform="translate(21502 75)"><circle class="f" cx="2.5" cy="2.5" r="2.5"/><circle class="h" cx="2.5" cy="2.5" r="2"/></g><g class="e" transform="translate(21514 75)"><circle class="f" cx="2.5" cy="2.5" r="2.5"/><circle class="h" cx="2.5" cy="2.5" r="2"/></g></g></g></svg>