<svg xmlns="http://www.w3.org/2000/svg" width="48" height="48" viewBox="0 0 48 48">
  <g id="Group_5155" data-name="Group 5155" transform="translate(-332 -1030)">
    <g id="Group_5154" data-name="Group 5154" transform="translate(-3 -66)">
      <rect id="Rectangle_2246" data-name="Rectangle 2246" width="48" height="48" transform="translate(335 1096)" fill="#D93E0E "/>
    </g>
    <path id="Path_8031" data-name="Path 8031" d="M20.19,61.151a1.86,1.86,0,0,0-2.812,0c-.657.652-1.315,1.3-1.961,1.967a.387.387,0,0,1-.541.1c-.425-.232-.878-.42-1.287-.674a20.4,20.4,0,0,1-4.917-4.475,11.649,11.649,0,0,1-1.762-2.823.4.4,0,0,1,.1-.519c.657-.635,1.3-1.287,1.945-1.939a1.867,1.867,0,0,0-.006-2.878c-.514-.519-1.028-1.028-1.541-1.547-.53-.53-1.055-1.066-1.591-1.591A1.872,1.872,0,0,0,3,46.776c-.663.652-1.3,1.32-1.972,1.961A3.2,3.2,0,0,0,.025,50.9a9.152,9.152,0,0,0,.707,3.939,23.936,23.936,0,0,0,4.248,7.077,26.29,26.29,0,0,0,8.707,6.812,12.592,12.592,0,0,0,4.823,1.4,3.534,3.534,0,0,0,3.033-1.155c.564-.63,1.2-1.2,1.8-1.807a1.879,1.879,0,0,0,.011-2.862Q21.775,62.723,20.19,61.151Z" transform="translate(343.994 995.863)" fill="#fff"/>
  </g>
</svg>
