<svg xmlns="http://www.w3.org/2000/svg" width="15" height="15" viewBox="0 0 15 15"><defs><style>.a{fill:#db0000;}</style></defs><path class="a" d="M12.621,55.521a1.163,1.163,0,0,0-1.758,0c-.411.407-.822.815-1.226,1.229a.242.242,0,0,1-.338.062c-.266-.145-.549-.262-.8-.421a12.747,12.747,0,0,1-3.073-2.8,7.28,7.28,0,0,1-1.1-1.764.253.253,0,0,1,.062-.325c.411-.4.811-.8,1.215-1.212a1.167,1.167,0,0,0,0-1.8c-.321-.325-.642-.642-.963-.967s-.659-.666-.994-.994a1.17,1.17,0,0,0-1.758,0c-.414.407-.811.825-1.233,1.226a2,2,0,0,0-.628,1.35A5.72,5.72,0,0,0,.46,51.574,14.96,14.96,0,0,0,3.115,56a16.431,16.431,0,0,0,5.442,4.257,7.87,7.87,0,0,0,3.014.877,2.209,2.209,0,0,0,1.9-.722c.352-.394.749-.753,1.122-1.129a1.175,1.175,0,0,0,.007-1.789Q13.612,56.5,12.621,55.521Z" transform="translate(-0.006 -46.137)"/></svg>