<svg xmlns="http://www.w3.org/2000/svg" width="16" height="16" viewBox="0 0 16 16"><defs><style>.a{fill:#f1592a;}</style></defs><g transform="translate(0 -0.001)"><path class="a" d="M15.835,7.6,8.4.166a.563.563,0,0,0-.8,0L.165,7.6a.563.563,0,0,0,0,.8L7.6,15.836a.563.563,0,0,0,.8,0L15.835,8.4a.563.563,0,0,0,0-.8ZM10.62,7.4,9.164,8.858a.563.563,0,0,1-.8-.8l.5-.5H6.341v3a.563.563,0,1,1-1.127,0V7a.563.563,0,0,1,.563-.563h3.08l-.606-.606a.563.563,0,0,1,.8-.8l1.571,1.572A.563.563,0,0,1,10.62,7.4Z"/></g></svg>