<svg xmlns="http://www.w3.org/2000/svg" width="26.841" height="16" viewBox="0 0 26.841 16"><defs><style>.a{fill:#002b4b;}</style></defs><g transform="translate(0 -98.725)"><path class="a" d="M13.421,98.725c-5.128,0-9.779,2.806-13.211,7.363a1.062,1.062,0,0,0,0,1.268c3.432,4.563,8.082,7.369,13.211,7.369s9.779-2.806,13.211-7.363a1.063,1.063,0,0,0,0-1.268C23.2,101.531,18.549,98.725,13.421,98.725Zm.368,13.633a5.646,5.646,0,1,1,5.266-5.266A5.649,5.649,0,0,1,13.789,112.358Zm-.17-2.6a3.04,3.04,0,1,1,2.839-2.839A3.035,3.035,0,0,1,13.618,109.756Z" transform="translate(0)"/></g></svg>