<svg xmlns="http://www.w3.org/2000/svg" width="26.841" height="16" viewBox="0 0 32 32"><defs><style>.a{fill:#002b4b;opacity:0;}.b{fill:#002b4b;}.c{fill:#002b4b;stroke:#002b4b;stroke-linecap:round;stroke-width:2px;}</style></defs><rect class="a" width="32" height="32"/><g transform="translate(2 8)"><path class="b" d="M1609.248,4015.472c-5.25,0-10.231-2.778-14.025-7.823a1.128,1.128,0,0,1,0-1.346,21.377,21.377,0,0,1,5.785-5.4l3.06,3.06a5.983,5.983,0,0,0,.812,7.112,6.019,6.019,0,0,0,4.372,1.892c.127,0,.258,0,.387-.012a5.961,5.961,0,0,0,2.617-.8l2.331,2.331A15.054,15.054,0,0,1,1609.248,4015.472Zm7.28-1.869h0l-.043-.046-2.689-2.689a5.966,5.966,0,0,0-.179-7.989,6.021,6.021,0,0,0-4.372-1.893c-.127,0-.257,0-.387.012a5.908,5.908,0,0,0-3.5,1.429l-2.509-2.509a15.184,15.184,0,0,1,6.4-1.432c5.25,0,10.231,2.778,14.025,7.823a1.127,1.127,0,0,1,0,1.346,20.776,20.776,0,0,1-6.744,5.948Zm-7.28-3.4a3.242,3.242,0,0,1-2.357-1.021,3.239,3.239,0,0,1-.734-3.125l4.013,4.013a3.173,3.173,0,0,1-.713.127C1609.388,4010.2,1609.318,4010.2,1609.248,4010.2Zm2.585-1.3h0l-4.51-4.51a3.218,3.218,0,0,1,1.721-.639c.069,0,.139-.007.208-.007a3.245,3.245,0,0,1,2.36,1.023,3.222,3.222,0,0,1,.222,4.133Z" transform="translate(-1595 -3998.486)"/></g><line class="c" x2="21" y2="21" transform="translate(6.5 4.5)"/></svg>