<svg id="Component_42_1" data-name="Component 42 – 1" xmlns="http://www.w3.org/2000/svg" width="26" height="24" viewBox="0 0 26 24">
  <g id="Rectangle_2763" data-name="Rectangle 2763" fill="#fff" stroke="#e2e2e2" stroke-width="0.5">
    <rect width="26" height="24" stroke="none"/>
    <rect x="0.25" y="0.25" width="25.5" height="23.5" fill="none"/>
  </g>
  <g id="Component_37" data-name="Component 37" transform="translate(5.42 5)">
    <g id="Component_17_2" data-name="Component 17 – 2" transform="translate(0)">
      <path id="Path_8732" data-name="Path 8732" d="M54.511,289.37a.379.379,0,0,1-.482-.241A1.024,1.024,0,0,0,53,288.32a1.253,1.253,0,0,0-1.137.914.381.381,0,0,1-.361.261h-.011a.381.381,0,0,1-.362-.261,1.164,1.164,0,0,0-2.274,0,.381.381,0,0,1-.361.261h-.011a.381.381,0,0,1-.362-.261,1.164,1.164,0,0,0-2.274,0,.381.381,0,0,1-.361.261H45.47a.381.381,0,0,1-.362-.261,1.164,1.164,0,0,0-2.274,0,.381.381,0,0,1-.361.261h-.011a.381.381,0,0,1-.362-.261,1.253,1.253,0,0,0-1.137-.914,1.024,1.024,0,0,0-1.033.809.379.379,0,0,1-.482.241.386.386,0,0,1-.238-.488,1.775,1.775,0,0,1,1.754-1.332,1.914,1.914,0,0,1,1.5.772,1.851,1.851,0,0,1,3.008,0,1.851,1.851,0,0,1,3.008,0,1.851,1.851,0,0,1,3.008,0,1.914,1.914,0,0,1,1.5-.772,1.775,1.775,0,0,1,1.754,1.332A.386.386,0,0,1,54.511,289.37Z" transform="translate(-39.189 -287.55)" fill="#002b4b"/>
    </g>
    <g id="Component_17_3" data-name="Component 17 – 3" transform="translate(-0.42 5)">
      <rect id="Rectangle_2623" data-name="Rectangle 2623" width="16" height="1" rx="0.5" transform="translate(0)" fill="#002b4b"/>
    </g>
    <g id="Component_17_4" data-name="Component 17 – 4" transform="translate(-0.42 9)">
      <rect id="Rectangle_2623-2" data-name="Rectangle 2623" width="16" height="1" rx="0.5" transform="translate(0)" fill="#002b4b"/>
    </g>
    <g id="Component_17_5" data-name="Component 17 – 5" transform="translate(-0.42 13)">
      <rect id="Rectangle_2623-3" data-name="Rectangle 2623" width="16" height="1" rx="0.5" transform="translate(0)" fill="#002b4b"/>
    </g>
  </g>
</svg>
