<svg xmlns="http://www.w3.org/2000/svg" width="70.334" height="40.887" viewBox="0 0 70.334 40.887"><defs><style>.a{fill:#d93e0e;}.b{fill:#b40000;}.c{fill:#fff;}</style></defs><g transform="translate(-2374.736 5251.104)"><path class="a" d="M37.789,81.258S20.127,81.2-26.5,81.2l3.778,24.565H43.834Z" transform="translate(2401.236 -5324.202)"/><path class="b" d="M176.7,193.1l2.088,8.191L187.6,193.1Z" transform="translate(2257.471 -5411.537)"/><path class="c" d="M117.441,45.013a3.065,3.065,0,0,1-2.473-2.411c0-.031-.031-.062-.062-.031a.03.03,0,0,0-.031.031,3.065,3.065,0,0,1-2.473,2.411c-.031,0-.062.031-.031.062a.03.03,0,0,0,.031.031,3.065,3.065,0,0,1,2.473,2.411c0,.031.031.062.062.031a.03.03,0,0,0,.031-.031,3.065,3.065,0,0,1,2.473-2.411.066.066,0,0,0,.062-.062C117.5,45.013,117.472,45.013,117.441,45.013Z" transform="translate(2319.696 -5292.983)"/><path class="c" d="M116.932,44.767a2.758,2.758,0,0,1-2.225-2.169c0-.028-.028-.056-.056-.028a.027.027,0,0,0-.028.028,2.758,2.758,0,0,1-2.225,2.169c-.028,0-.056.028-.028.056a.027.027,0,0,0,.028.028,2.758,2.758,0,0,1,2.225,2.169c0,.028.028.056.056.028a.027.027,0,0,0,.028-.028,2.758,2.758,0,0,1,2.225-2.169.06.06,0,0,0,.056-.056C116.987,44.767,116.959,44.767,116.932,44.767Z" transform="translate(2271.485 -5292.123)"/><path class="c" d="M116.431,44.526a2.456,2.456,0,0,1-1.982-1.932c0-.025-.025-.05-.05-.025a.024.024,0,0,0-.025.025,2.456,2.456,0,0,1-1.982,1.932c-.025,0-.05.025-.025.05a.024.024,0,0,0,.025.025,2.456,2.456,0,0,1,1.982,1.932c0,.025.025.05.05.025a.024.024,0,0,0,.025-.025,2.456,2.456,0,0,1,1.982-1.932.053.053,0,0,0,.05-.05C116.481,44.526,116.456,44.526,116.431,44.526Z" transform="translate(2294.52 -5290.482)"/><path class="c" d="M116.072,44.352a2.239,2.239,0,0,1-1.807-1.762c0-.023-.023-.045-.045-.023a.022.022,0,0,0-.023.023,2.239,2.239,0,0,1-1.807,1.762c-.023,0-.045.023-.023.045a.022.022,0,0,0,.023.023,2.239,2.239,0,0,1,1.807,1.762c0,.023.023.045.045.023a.022.022,0,0,0,.023-.023,2.239,2.239,0,0,1,1.807-1.762.049.049,0,0,0,.045-.045C116.117,44.352,116.095,44.352,116.072,44.352Z" transform="translate(2288.52 -5259.402)"/><path class="c" d="M117.234,44.913a2.94,2.94,0,0,1-2.372-2.313c0-.03-.03-.059-.059-.03a.029.029,0,0,0-.03.03,2.94,2.94,0,0,1-2.372,2.313c-.03,0-.059.03-.03.059a.029.029,0,0,0,.03.03,2.94,2.94,0,0,1,2.372,2.313c0,.03.03.059.059.03a.029.029,0,0,0,.03-.03A2.94,2.94,0,0,1,117.234,45a.064.064,0,0,0,.059-.059C117.293,44.913,117.263,44.913,117.234,44.913Z" transform="translate(2306.886 -5257.574)"/><path class="c" d="M117.227,44.91a2.936,2.936,0,0,1-2.369-2.31c0-.03-.03-.059-.059-.03a.029.029,0,0,0-.03.03,2.936,2.936,0,0,1-2.369,2.31c-.03,0-.059.03-.03.059a.029.029,0,0,0,.03.03,2.936,2.936,0,0,1,2.369,2.31c0,.03.03.059.059.03a.029.029,0,0,0,.03-.03A2.936,2.936,0,0,1,117.227,45a.064.064,0,0,0,.059-.059C117.287,44.91,117.257,44.91,117.227,44.91Z" transform="translate(2265.3 -5258.143)"/><circle class="a" cx="1.32" cy="1.32" r="1.32" transform="translate(2428.124 -5217.189)"/><circle class="a" cx="1.7" cy="1.7" r="1.7" transform="translate(2417.09 -5251.104)"/><path class="a" d="M.68,0A.68.68,0,1,1,0,.68.68.68,0,0,1,.68,0Z" transform="translate(2400.09 -5246.423)"/><circle class="a" cx="1.181" cy="1.181" r="1.181" transform="translate(2375.09 -5250.065)"/><circle class="a" cx="0.68" cy="0.68" r="0.68" transform="translate(2425.45 -5246.103)"/><circle class="a" cx="0.916" cy="0.916" r="0.916" transform="translate(2410.469 -5212.729)"/><circle class="a" cx="1.68" cy="1.68" r="1.68" transform="translate(2390.573 -5213.869)"/><circle class="a" cx="0.68" cy="0.68" r="0.68" transform="translate(2386.418 -5216.375)"/><circle class="a" cx="1.01" cy="1.01" r="1.01" transform="translate(2393.431 -5250.423)"/></g></svg>