<svg xmlns="http://www.w3.org/2000/svg" width="40" height="19" viewBox="0 0 40 19">
  <g id="Group_6921" data-name="Group 6921" transform="translate(-331.928 -363.094)">
    <g id="Rectangle_1207-4" data-name="Rectangle 1207-4">
      <rect id="Rectangle_2773" data-name="Rectangle 2773" width="40" height="19" transform="translate(331.928 363.094)" fill="#fff"/>
      <rect id="Rectangle_2774" data-name="Rectangle 2774" width="39" height="18" transform="translate(332.428 363.594)" fill="none" stroke="#efefef" stroke-width="1"/>
    </g>
    <g id="Firm" style="isolation: isolate">
      <g id="Group_6928" data-name="Group 6928" style="isolation: isolate">
        <path id="Path_8751" data-name="Path 8751" d="M348.09,370.488h-2.272v1.927h1.7v.64h-1.7v2.039h-.823v-5.278h3.1Z" fill="#00213a"/>
        <path id="Path_8752" data-name="Path 8752" d="M348.556,370.32a.48.48,0,1,1,.479.489A.472.472,0,0,1,348.556,370.32Zm.088,4.046v-2.694h.783v2.558c0,.312.088.4.288.4a.518.518,0,0,0,.176-.032l.032.456a1.08,1.08,0,0,1-.56.128C348.923,375.182,348.644,375.006,348.644,374.366Z" fill="#00213a"/>
        <path id="Path_8753" data-name="Path 8753" d="M352.851,371.624l-.017.791-.04.017a.994.994,0,0,0-.455-.1,1.224,1.224,0,0,0-.88.456v2.3h-.783v-3.422h.751l.024.479a1.476,1.476,0,0,1,1.1-.567A1.018,1.018,0,0,1,352.851,371.624Z" fill="#00213a"/>
        <path id="Path_8754" data-name="Path 8754" d="M359.336,375.054a1.148,1.148,0,0,1-.56.128c-.439,0-.727-.176-.727-.824v-1.223c0-.575-.208-.864-.615-.864a1.42,1.42,0,0,0-.88.384,2.479,2.479,0,0,1,.008.248v2.191h-.784v-2c0-.568-.208-.824-.639-.824a1.353,1.353,0,0,0-.872.376v2.447h-.784v-3.422h.745l.023.359a1.8,1.8,0,0,1,1.151-.447,1.02,1.02,0,0,1,1.024.56,1.927,1.927,0,0,1,1.271-.56c.743,0,1.136.464,1.136,1.359v1.287c0,.312.088.4.287.4a.48.48,0,0,0,.176-.032Z" fill="#00213a"/>
      </g>
    </g>
  </g>
</svg>
