<svg xmlns="http://www.w3.org/2000/svg" width="40" height="19" viewBox="0 0 40 19">
  <g id="Group_6920" data-name="Group 6920" transform="translate(-331.928 -339.094)">
    <g id="Rectangle_1207-3" data-name="Rectangle 1207-3">
      <rect id="Rectangle_2771" data-name="Rectangle 2771" width="40" height="19" transform="translate(331.928 339.094)" fill="#fff"/>
      <rect id="Rectangle_2772" data-name="Rectangle 2772" width="39" height="18" transform="translate(332.428 339.594)" fill="none" stroke="#efefef" stroke-width="1"/>
    </g>
    <g id="Medium" style="isolation: isolate">
      <g id="Group_6927" data-name="Group 6927" style="isolation: isolate">
        <path id="Path_8745" data-name="Path 8745" d="M344.236,351.094h-.767l-.1-3.4-1.791,2.511h-.12l-1.751-2.518-.12,3.406h-.768l.176-5.3h.248l2.295,3.357,2.294-3.357h.248Z" fill="#00213a"/>
        <path id="Path_8746" data-name="Path 8746" d="M347.926,350.3l.152.5a2.136,2.136,0,0,1-1.3.391,1.634,1.634,0,0,1-1.783-1.783,1.654,1.654,0,0,1,1.688-1.83c1.079,0,1.591.839,1.391,1.91h-2.3a1.063,1.063,0,0,0,1.16,1.1A1.847,1.847,0,0,0,347.926,350.3Zm-2.135-1.335h1.647a.742.742,0,0,0-.751-.871A.912.912,0,0,0,345.791,348.967Z" fill="#00213a"/>
        <path id="Path_8747" data-name="Path 8747" d="M352.63,351.054a1.14,1.14,0,0,1-.552.128.614.614,0,0,1-.7-.488,1.64,1.64,0,0,1-1.183.488c-.92,0-1.439-.664-1.439-1.727a1.652,1.652,0,0,1,1.711-1.871,1.884,1.884,0,0,1,.871.2V345.5h.784v4.733c0,.36.151.472.464.368Zm-2.2-.568a1.328,1.328,0,0,0,.911-.391v-1.688a1.755,1.755,0,0,0-.736-.16c-.7,0-1.046.424-1.046,1.151C349.56,350.006,349.807,350.486,350.431,350.486Z" fill="#00213a"/>
        <path id="Path_8748" data-name="Path 8748" d="M353.247,346.32a.48.48,0,1,1,.48.489A.473.473,0,0,1,353.247,346.32Zm.088,4.046v-2.694h.784v2.558c0,.312.088.4.287.4a.51.51,0,0,0,.176-.032l.032.456a1.073,1.073,0,0,1-.559.128C353.615,351.182,353.335,351.006,353.335,350.366Z" fill="#00213a"/>
        <path id="Path_8749" data-name="Path 8749" d="M358.861,351.054a1.114,1.114,0,0,1-.551.128.6.6,0,0,1-.672-.432,1.608,1.608,0,0,1-1.127.432c-.8,0-1.207-.472-1.207-1.375v-2.135h.775v1.942c0,.592.216.872.695.872a1.226,1.226,0,0,0,.816-.32v-2.494h.775v2.558c0,.368.145.464.464.368Z" fill="#00213a"/>
        <path id="Path_8750" data-name="Path 8750" d="M365.46,351.054a1.151,1.151,0,0,1-.56.128c-.44,0-.727-.176-.727-.824v-1.223c0-.575-.208-.864-.616-.864a1.417,1.417,0,0,0-.879.384c.008.08.008.16.008.248v2.191H361.9v-2c0-.568-.207-.824-.639-.824a1.352,1.352,0,0,0-.871.376v2.447h-.784v-3.422h.744l.024.359a1.8,1.8,0,0,1,1.151-.447,1.021,1.021,0,0,1,1.024.56,1.924,1.924,0,0,1,1.27-.56c.744,0,1.136.464,1.136,1.359v1.287c0,.312.088.4.288.4a.487.487,0,0,0,.176-.032Z" fill="#00213a"/>
      </g>
    </g>
  </g>
</svg>
