<svg xmlns="http://www.w3.org/2000/svg" width="22.734" height="22.128" viewBox="0 0 22.734 22.128"><defs><style>.a{fill:#D93E0E ;}.b{fill:none;}</style></defs><g transform="translate(2.787 2.181)"><path class="a" d="M20.521-16.607a2.171,2.171,0,0,0-2.163,2.174,2.171,2.171,0,0,0,2.163,2.174,2.18,2.18,0,0,0,2.174-2.174A2.18,2.18,0,0,0,20.521-16.607ZM14-34v2.174h2.174l3.913,8.251-1.467,2.652a2.178,2.178,0,0,0,1.9,3.228H33.563v-2.174H20.521l1.2-2.174h8.1a2.163,2.163,0,0,0,1.9-1.12l3.891-7.055a1.083,1.083,0,0,0-.946-1.609H18.575L17.554-34ZM31.389-16.607a2.171,2.171,0,0,0-2.163,2.174,2.171,2.171,0,0,0,2.163,2.174,2.18,2.18,0,0,0,2.174-2.174A2.18,2.18,0,0,0,31.389-16.607Z" transform="translate(-16.787 31.819)"/><rect class="b" width="19.947" height="19.947"/></g></svg>