<svg xmlns="http://www.w3.org/2000/svg" width="32" height="32" viewBox="0 0 32 32"><defs><style>.a{opacity:0;}.b,.c{fill:#d93e0e;stroke:#d93e0e;}.c{stroke-width:0.5px;}.d{stroke:none;}.e{fill:none;}</style></defs><g class="a" transform="translate(-1269 -1202)"><g class="b" transform="translate(1269 1202)"><rect class="d" width="32" height="32"/><rect class="e" x="0.5" y="0.5" width="31" height="31"/></g><g class="b" transform="translate(1277 1210)"><rect class="d" width="16" height="16"/><rect class="e" x="0.5" y="0.5" width="15" height="15"/></g></g><path class="c" d="M15.8.2a.666.666,0,0,0-.943,0L8,7.057,1.138.2A.667.667,0,0,0,.2,1.138L7.529,8.471a.666.666,0,0,0,.943,0L15.8,1.138A.666.666,0,0,0,15.8.2Z" transform="translate(20.167 8.5) rotate(90)"/></svg>