<svg xmlns="http://www.w3.org/2000/svg" width="40" height="19" viewBox="0 0 40 19">
  <g id="Group_6919" data-name="Group 6919" transform="translate(-331.928 -318.094)">
    <g id="Rectangle_1207-2" data-name="Rectangle 1207-2">
      <rect id="Rectangle_2769" data-name="Rectangle 2769" width="40" height="19" transform="translate(331.928 318.094)" fill="#fff"/>
      <rect id="Rectangle_2770" data-name="Rectangle 2770" width="39" height="18" transform="translate(332.428 318.594)" fill="none" stroke="#efefef" stroke-width="1"/>
    </g>
    <g id="Soft" style="isolation: isolate">
      <g id="Group_6926" data-name="Group 6926" style="isolation: isolate">
        <path id="Path_8741" data-name="Path 8741" d="M345.012,328.822l.8-.208a1.181,1.181,0,0,0,1.294.888c.632,0,1.016-.288,1.016-.743,0-1.192-2.927-.7-2.927-2.528,0-1.039.92-1.51,1.9-1.51a1.527,1.527,0,0,1,1.734,1.383l-.751.184a.972.972,0,0,0-1.08-.88c-.512,0-.951.233-.951.712,0,1.167,2.927.7,2.927,2.511,0,.951-.784,1.551-1.976,1.551C345.851,330.182,345.155,329.646,345.012,328.822Z" fill="#00213a"/>
        <path id="Path_8742" data-name="Path 8742" d="M349.531,328.375a1.65,1.65,0,0,1,1.759-1.791A1.607,1.607,0,0,1,353,328.351a1.674,1.674,0,0,1-1.743,1.831A1.646,1.646,0,0,1,349.531,328.375Zm2.679-.008c0-.744-.36-1.183-.936-1.183s-.952.439-.952,1.183.368,1.215.945,1.215S352.21,329.118,352.21,328.367Z" fill="#00213a"/>
        <path id="Path_8743" data-name="Path 8743" d="M354.786,326.168v.5h1.008v.6h-1.008v2.823H354v-2.823h-.44v-.6H354v-.608c0-1.175.592-1.664,1.367-1.664a1.477,1.477,0,0,1,.752.193l-.08.632a.872.872,0,0,0-.472-.128C355.059,325.1,354.786,325.44,354.786,326.168Z" fill="#00213a"/>
        <path id="Path_8744" data-name="Path 8744" d="M358.914,329.918a1.869,1.869,0,0,1-.992.264c-.719,0-1.167-.392-1.167-1.28v-1.631H356.2v-.6h.552v-.92l.783-.1v1.016h1.224v.6h-1.224V328.7c0,.488.152.84.664.84a1.464,1.464,0,0,0,.655-.184Z" fill="#00213a"/>
      </g>
    </g>
  </g>
</svg>
