<svg id="star" xmlns="http://www.w3.org/2000/svg" width="13.533" height="12.91" viewBox="0 0 13.533 12.91">
  <g id="Group_2611" data-name="Group 2611" transform="translate(0 0)">
    <path id="Path_5876" data-name="Path 5876" d="M13.514,16.7a.4.4,0,0,0-.32-.27L9,15.819l-1.876-3.8a.4.4,0,0,0-.711,0l-1.876,3.8-4.2.61a.4.4,0,0,0-.22.676l3.036,2.959-.717,4.178a.4.4,0,0,0,.575.418l3.752-1.973,3.752,1.973a.4.4,0,0,0,.575-.418l-.717-4.178L13.414,17.1A.4.4,0,0,0,13.514,16.7Z" transform="translate(0 -11.796)" fill="#D93E0E "/>
  </g>
</svg>
