<svg xmlns="http://www.w3.org/2000/svg" width="32" height="32" viewBox="0 0 32 32"><rect width="32" height="32" opacity="0"/><g transform="translate(4 4)"><path d="M24.217,20.581a.71.71,0,0,0-.573-.484L16.125,19l-3.362-6.812a.71.71,0,0,0-1.274,0L8.126,19,.608,20.1a.71.71,0,0,0-.394,1.212l5.44,5.3L4.371,34.1a.71.71,0,0,0,1.031.749l6.724-3.535,6.724,3.535a.711.711,0,0,0,1.031-.749L18.6,26.612l5.44-5.3A.71.71,0,0,0,24.217,20.581Z" transform="translate(0 -11.796)" fill="#fff" stroke="#d93e0e" stroke-width="1"/><path d="M1284.07,4028.135a.712.712,0,0,1-.7-.831l1.284-7.488-5.44-5.3a.711.711,0,0,1,.393-1.212l7.518-1.092,3.362-6.813a.712.712,0,0,1,1.275,0l3.237,6.559v14.6l-3.875-2.037-6.724,3.535A.713.713,0,0,1,1284.07,4028.135Z" transform="translate(-1279 -4005)" fill="#d93e0e"/></g></svg>