<svg xmlns="http://www.w3.org/2000/svg" width="32" height="32" viewBox="0 0 32 32"><rect width="32" height="32" opacity="0"/><g transform="translate(8 8)"><path d="M15.977,17.872a.475.475,0,0,0-.378-.334l-4.96-.756L8.42,12.07a.459.459,0,0,0-.841,0L5.361,16.782.4,17.537a.475.475,0,0,0-.378.334.508.508,0,0,0,.119.5l3.589,3.668-.847,5.179a.5.5,0,0,0,.186.481.451.451,0,0,0,.494.037L8,25.294l4.436,2.445a.451.451,0,0,0,.494-.037.5.5,0,0,0,.187-.481l-.847-5.179,3.589-3.668A.508.508,0,0,0,15.977,17.872Z" transform="translate(0 -11.796)" fill="#fff" stroke="#d93e0e" stroke-width="1"/><path d="M1236.345,4017a.451.451,0,0,1-.275-.094.5.5,0,0,1-.187-.48l.847-5.179-3.589-3.668a.507.507,0,0,1-.118-.5.477.477,0,0,1,.378-.335l4.96-.755,2.218-4.712a.466.466,0,0,1,.42-.273v13.5l-4.436,2.445A.45.45,0,0,1,1236.345,4017Z" transform="translate(-1233 -4001)" fill="#d93e0e"/></g></svg>