<svg xmlns="http://www.w3.org/2000/svg" width="105.334" height="41.276" viewBox="0 0 105.334 41.276"><defs><style>.a{fill:#d93e0e;}.b{fill:#b40000;}.c{fill:#002b4b;}</style></defs><g transform="translate(0)"><path class="a" d="M-20.455,81.258S32.207,81.2,78.834,81.2l-3.778,24.565H-26.5Z" transform="translate(26.5 -73.097)"/><path class="b" d="M187.6,193.1l-2.088,8.191L176.7,193.1Z" transform="translate(-176.7 -160.433)"/><path class="c" d="M112.42,45.013a3.065,3.065,0,0,0,2.473-2.411c0-.031.031-.062.062-.031a.03.03,0,0,1,.031.031,3.065,3.065,0,0,0,2.473,2.411c.031,0,.062.031.031.062a.03.03,0,0,1-.031.031,3.065,3.065,0,0,0-2.473,2.411c0,.031-.031.062-.062.031a.03.03,0,0,1-.031-.031,3.065,3.065,0,0,0-2.473-2.411.066.066,0,0,1-.062-.062C112.359,45.013,112.389,45.013,112.42,45.013Z" transform="translate(-104.487 -41.879)"/><path class="c" d="M112.4,44.023a1.828,1.828,0,0,0,1.475-1.438c0-.018.018-.037.037-.018a.018.018,0,0,1,.018.018,1.828,1.828,0,0,0,1.475,1.438c.018,0,.037.018.018.037a.018.018,0,0,1-.018.018,1.828,1.828,0,0,0-1.475,1.438c0,.018-.018.037-.037.018a.018.018,0,0,1-.018-.018,1.828,1.828,0,0,0-1.475-1.438.04.04,0,0,1-.037-.037C112.359,44.023,112.377,44.023,112.4,44.023Z" transform="translate(-36.927 -40.869)"/><path class="c" d="M112.42,45.013a3.065,3.065,0,0,0,2.473-2.411c0-.031.031-.062.062-.031a.03.03,0,0,1,.031.031,3.065,3.065,0,0,0,2.473,2.411c.031,0,.062.031.031.062a.03.03,0,0,1-.031.031,3.065,3.065,0,0,0-2.473,2.411c0,.031-.031.062-.062.031a.03.03,0,0,1-.031-.031,3.065,3.065,0,0,0-2.473-2.411.066.066,0,0,1-.062-.062C112.359,45.013,112.389,45.013,112.42,45.013Z" transform="translate(-57.951 -41.199)"/><path class="c" d="M112.408,44.526a2.456,2.456,0,0,0,1.982-1.932c0-.025.025-.05.05-.025a.024.024,0,0,1,.025.025,2.456,2.456,0,0,0,1.982,1.932c.025,0,.05.025.025.05a.024.024,0,0,1-.025.025,2.456,2.456,0,0,0-1.982,1.932c0,.025-.025.05-.05.025a.024.024,0,0,1-.025-.025,2.456,2.456,0,0,0-1.982-1.932.053.053,0,0,1-.05-.05C112.359,44.526,112.383,44.526,112.408,44.526Z" transform="translate(-78.289 -39.377)"/><path class="c" d="M112.408,44.526a2.456,2.456,0,0,0,1.982-1.932c0-.025.025-.05.05-.025a.024.024,0,0,1,.025.025,2.456,2.456,0,0,0,1.982,1.932c.025,0,.05.025.025.05a.024.024,0,0,1-.025.025,2.456,2.456,0,0,0-1.982,1.932c0,.025-.025.05-.05.025a.024.024,0,0,1-.025-.025,2.456,2.456,0,0,0-1.982-1.932.053.053,0,0,1-.05-.05C112.359,44.526,112.383,44.526,112.408,44.526Z" transform="translate(-11.54 -40.377)"/><path class="c" d="M112.4,44.352a2.239,2.239,0,0,0,1.807-1.762c0-.023.023-.045.045-.023a.022.022,0,0,1,.023.023,2.239,2.239,0,0,0,1.807,1.762c.023,0,.045.023.023.045a.022.022,0,0,1-.023.023,2.239,2.239,0,0,0-1.807,1.762c0,.023-.023.045-.045.023a.022.022,0,0,1-.023-.023A2.239,2.239,0,0,0,112.4,44.42a.049.049,0,0,1-.045-.045C112.359,44.352,112.381,44.352,112.4,44.352Z" transform="translate(-70.497 -8.297)"/><path class="c" d="M112.4,44.352a2.239,2.239,0,0,0,1.807-1.762c0-.023.023-.045.045-.023a.022.022,0,0,1,.023.023,2.239,2.239,0,0,0,1.807,1.762c.023,0,.045.023.023.045a.022.022,0,0,1-.023.023,2.239,2.239,0,0,0-1.807,1.762c0,.023-.023.045-.045.023a.022.022,0,0,1-.023-.023A2.239,2.239,0,0,0,112.4,44.42a.049.049,0,0,1-.045-.045C112.359,44.352,112.381,44.352,112.4,44.352Z" transform="translate(-16.638 -8.644)"/><path class="c" d="M112.418,44.913A2.94,2.94,0,0,0,114.79,42.6c0-.03.03-.059.059-.03a.029.029,0,0,1,.03.03,2.94,2.94,0,0,0,2.372,2.313c.03,0,.059.03.03.059a.029.029,0,0,1-.03.03,2.94,2.94,0,0,0-2.372,2.313c0,.03-.03.059-.059.03a.029.029,0,0,1-.03-.03A2.94,2.94,0,0,0,112.418,45a.064.064,0,0,1-.059-.059C112.359,44.913,112.388,44.913,112.418,44.913Z" transform="translate(-91.467 -6.47)"/><path class="c" d="M112.418,44.913A2.94,2.94,0,0,0,114.79,42.6c0-.03.03-.059.059-.03a.029.029,0,0,1,.03.03,2.94,2.94,0,0,0,2.372,2.313c.03,0,.059.03.03.059a.029.029,0,0,1-.03.03,2.94,2.94,0,0,0-2.372,2.313c0,.03-.03.059-.059.03a.029.029,0,0,1-.03-.03A2.94,2.94,0,0,0,112.418,45a.064.064,0,0,1-.059-.059C112.359,44.913,112.388,44.913,112.418,44.913Z" transform="translate(-33.927 -6.081)"/><path class="c" d="M112.4,44.225a2.08,2.08,0,0,0,1.678-1.636c0-.021.021-.042.042-.021a.021.021,0,0,1,.021.021,2.08,2.08,0,0,0,1.678,1.636c.021,0,.042.021.021.042a.021.021,0,0,1-.021.021,2.08,2.08,0,0,0-1.678,1.636c0,.021-.021.042-.042.021a.021.021,0,0,1-.021-.021,2.08,2.08,0,0,0-1.678-1.636.045.045,0,0,1-.042-.042C112.359,44.225,112.38,44.225,112.4,44.225Z" transform="translate(-49.772 -8.718)"/><ellipse class="a" cx="1.32" cy="1.32" rx="1.32" ry="1.32" transform="translate(14.306 33.915)"/><ellipse class="a" cx="1.7" cy="1.7" rx="1.7" ry="1.7" transform="translate(24.579)"/><ellipse class="a" cx="1.7" cy="1.7" rx="1.7" ry="1.7" transform="translate(91.328)"/><path class="a" d="M.68,0a.68.68,0,1,0,.68.68A.68.68,0,0,0,.68,0Z" transform="translate(45.62 2.86)"/><ellipse class="a" cx="1.181" cy="1.181" rx="1.181" ry="1.181" transform="translate(66.98 0.68)"/><ellipse class="a" cx="0.68" cy="0.68" rx="0.68" ry="0.68" transform="translate(18.26 5.002)"/><ellipse class="a" cx="0.68" cy="0.68" rx="0.68" ry="0.68" transform="translate(83.366 5.185)"/><ellipse class="a" cx="0.916" cy="0.916" rx="0.916" ry="0.916" transform="translate(34.3 36.543)"/><ellipse class="a" cx="0.916" cy="0.916" rx="0.916" ry="0.916" transform="translate(89.096 36.543)"/><ellipse class="a" cx="1.68" cy="1.68" rx="1.68" ry="1.68" transform="translate(54.184 37.917)"/><ellipse class="a" cx="0.68" cy="0.68" rx="0.68" ry="0.68" transform="translate(71.342 38.847)"/></g></svg>