<svg id="Component_39_2" data-name="Component 39 – 2" xmlns="http://www.w3.org/2000/svg" width="26" height="24" viewBox="0 0 26 24">
  <g id="Rectangle_1207" data-name="Rectangle 1207" fill="#fff" stroke="#e2e2e2" stroke-width="0.5">
    <rect width="26" height="24" stroke="none"/>
    <rect x="0.25" y="0.25" width="25.5" height="23.5" fill="none"/>
  </g>
  <g id="Component_35" data-name="Component 35" transform="translate(5 5)">
    <g id="Component_17_2" data-name="Component 17 – 2">
      <path id="Path_8732" data-name="Path 8732" d="M54.924,289.419a.389.389,0,0,1-.5-.248,1.052,1.052,0,0,0-1.061-.831,1.287,1.287,0,0,0-1.168.939.391.391,0,0,1-.371.268h-.011a.391.391,0,0,1-.372-.268,1.2,1.2,0,0,0-2.336,0,.391.391,0,0,1-.371.268h-.011a.391.391,0,0,1-.372-.268,1.2,1.2,0,0,0-2.336,0,.391.391,0,0,1-.371.268H45.64a.391.391,0,0,1-.372-.268,1.2,1.2,0,0,0-2.336,0,.391.391,0,0,1-.371.268H42.55a.391.391,0,0,1-.372-.268,1.287,1.287,0,0,0-1.168-.939,1.052,1.052,0,0,0-1.061.831.39.39,0,0,1-.5.248.4.4,0,0,1-.245-.5,1.822,1.822,0,0,1,1.8-1.368,1.965,1.965,0,0,1,1.545.793,1.9,1.9,0,0,1,3.089,0,1.9,1.9,0,0,1,3.089,0,1.9,1.9,0,0,1,3.089,0,1.965,1.965,0,0,1,1.545-.793,1.822,1.822,0,0,1,1.8,1.368A.4.4,0,0,1,54.924,289.419Z" transform="translate(-39.189 -287.55)" fill="#002b4b"/>
    </g>
    <g id="Component_17_3" data-name="Component 17 – 3" transform="translate(0 3.962)">
      <path id="Path_8732-2" data-name="Path 8732" d="M54.924,289.419a.389.389,0,0,1-.5-.248,1.052,1.052,0,0,0-1.061-.831,1.287,1.287,0,0,0-1.168.939.391.391,0,0,1-.371.268h-.011a.391.391,0,0,1-.372-.268,1.2,1.2,0,0,0-2.336,0,.391.391,0,0,1-.371.268h-.011a.391.391,0,0,1-.372-.268,1.2,1.2,0,0,0-2.336,0,.391.391,0,0,1-.371.268H45.64a.391.391,0,0,1-.372-.268,1.2,1.2,0,0,0-2.336,0,.391.391,0,0,1-.371.268H42.55a.391.391,0,0,1-.372-.268,1.287,1.287,0,0,0-1.168-.939,1.052,1.052,0,0,0-1.061.831.39.39,0,0,1-.5.248.4.4,0,0,1-.245-.5,1.822,1.822,0,0,1,1.8-1.368,1.965,1.965,0,0,1,1.545.793,1.9,1.9,0,0,1,3.089,0,1.9,1.9,0,0,1,3.089,0,1.9,1.9,0,0,1,3.089,0,1.965,1.965,0,0,1,1.545-.793,1.822,1.822,0,0,1,1.8,1.368A.4.4,0,0,1,54.924,289.419Z" transform="translate(-39.189 -287.55)" fill="#002b4b"/>
    </g>
    <g id="Component_17_4" data-name="Component 17 – 4" transform="translate(0 7.925)">
      <path id="Path_8732-3" data-name="Path 8732" d="M54.924,289.419a.389.389,0,0,1-.5-.248,1.052,1.052,0,0,0-1.061-.831,1.287,1.287,0,0,0-1.168.939.391.391,0,0,1-.371.268h-.011a.391.391,0,0,1-.372-.268,1.2,1.2,0,0,0-2.336,0,.391.391,0,0,1-.371.268h-.011a.391.391,0,0,1-.372-.268,1.2,1.2,0,0,0-2.336,0,.391.391,0,0,1-.371.268H45.64a.391.391,0,0,1-.372-.268,1.2,1.2,0,0,0-2.336,0,.391.391,0,0,1-.371.268H42.55a.391.391,0,0,1-.372-.268,1.287,1.287,0,0,0-1.168-.939,1.052,1.052,0,0,0-1.061.831.39.39,0,0,1-.5.248.4.4,0,0,1-.245-.5,1.822,1.822,0,0,1,1.8-1.368,1.965,1.965,0,0,1,1.545.793,1.9,1.9,0,0,1,3.089,0,1.9,1.9,0,0,1,3.089,0,1.9,1.9,0,0,1,3.089,0,1.965,1.965,0,0,1,1.545-.793,1.822,1.822,0,0,1,1.8,1.368A.4.4,0,0,1,54.924,289.419Z" transform="translate(-39.189 -287.55)" fill="#002b4b"/>
    </g>
    <g id="Component_17_5" data-name="Component 17 – 5" transform="translate(0 11.887)">
      <path id="Path_8732-4" data-name="Path 8732" d="M54.924,289.419a.389.389,0,0,1-.5-.248,1.052,1.052,0,0,0-1.061-.831,1.287,1.287,0,0,0-1.168.939.391.391,0,0,1-.371.268h-.011a.391.391,0,0,1-.372-.268,1.2,1.2,0,0,0-2.336,0,.391.391,0,0,1-.371.268h-.011a.391.391,0,0,1-.372-.268,1.2,1.2,0,0,0-2.336,0,.391.391,0,0,1-.371.268H45.64a.391.391,0,0,1-.372-.268,1.2,1.2,0,0,0-2.336,0,.391.391,0,0,1-.371.268H42.55a.391.391,0,0,1-.372-.268,1.287,1.287,0,0,0-1.168-.939,1.052,1.052,0,0,0-1.061.831.39.39,0,0,1-.5.248.4.4,0,0,1-.245-.5,1.822,1.822,0,0,1,1.8-1.368,1.965,1.965,0,0,1,1.545.793,1.9,1.9,0,0,1,3.089,0,1.9,1.9,0,0,1,3.089,0,1.9,1.9,0,0,1,3.089,0,1.965,1.965,0,0,1,1.545-.793,1.822,1.822,0,0,1,1.8,1.368A.4.4,0,0,1,54.924,289.419Z" transform="translate(-39.189 -287.55)" fill="#002b4b"/>
    </g>
  </g>
</svg>
