<svg xmlns="http://www.w3.org/2000/svg" width="40" height="19" viewBox="0 0 40 19">
  <g id="Group_6922" data-name="Group 6922" transform="translate(-331.928 -384.094)">
    <g id="Rectangle_1207-5" data-name="Rectangle 1207-5">
      <rect id="Rectangle_2775" data-name="Rectangle 2775" width="40" height="19" transform="translate(331.928 384.094)" fill="#fff"/>
      <rect id="Rectangle_2776" data-name="Rectangle 2776" width="39" height="18" transform="translate(332.428 384.594)" fill="none" stroke="#efefef" stroke-width="1"/>
    </g>
    <g id="Very_Firm" data-name="Very Firm" style="isolation: isolate">
      <g id="Group_6929" data-name="Group 6929" style="isolation: isolate">
        <path id="Path_8755" data-name="Path 8755" d="M340.182,390.816h.847l-2.319,5.35h-.224l-2.295-5.35h.848l1.567,3.783Z" fill="#00213a"/>
        <path id="Path_8756" data-name="Path 8756" d="M343.727,395.3l.151.5a2.134,2.134,0,0,1-1.3.391,1.634,1.634,0,0,1-1.783-1.783,1.653,1.653,0,0,1,1.687-1.83c1.08,0,1.591.839,1.391,1.91h-2.295a1.063,1.063,0,0,0,1.159,1.1A1.851,1.851,0,0,0,343.727,395.3Zm-2.135-1.335h1.646a.741.741,0,0,0-.751-.871A.911.911,0,0,0,341.592,393.967Z" fill="#00213a"/>
        <path id="Path_8757" data-name="Path 8757" d="M347,392.624l-.017.791-.04.017a.989.989,0,0,0-.455-.1,1.226,1.226,0,0,0-.88.456v2.3h-.783v-3.422h.751l.025.479a1.474,1.474,0,0,1,1.1-.567A1.023,1.023,0,0,1,347,392.624Z" fill="#00213a"/>
        <path id="Path_8758" data-name="Path 8758" d="M349.958,392.672h.76l-1.367,3.477c-.384.92-.944,1.768-1.807,1.768a.935.935,0,0,1-.44-.088l.1-.568a.793.793,0,0,0,.248.04c.592,0,.968-.64,1.224-1.263l-1.44-3.366h.825l.966,2.431Z" fill="#00213a"/>
        <path id="Path_8759" data-name="Path 8759" d="M356.374,391.488H354.1v1.927h1.7v.64h-1.7v2.039h-.824v-5.278h3.1Z" fill="#00213a"/>
        <path id="Path_8760" data-name="Path 8760" d="M356.84,391.32a.48.48,0,1,1,.479.489A.472.472,0,0,1,356.84,391.32Zm.088,4.046v-2.694h.783v2.558c0,.312.088.4.288.4a.518.518,0,0,0,.176-.032l.032.456a1.081,1.081,0,0,1-.561.128C357.207,396.182,356.928,396.006,356.928,395.366Z" fill="#00213a"/>
        <path id="Path_8761" data-name="Path 8761" d="M361.135,392.624l-.017.791-.04.017a.992.992,0,0,0-.455-.1,1.224,1.224,0,0,0-.88.456v2.3h-.783v-3.422h.751l.024.479a1.478,1.478,0,0,1,1.1-.567A1.023,1.023,0,0,1,361.135,392.624Z" fill="#00213a"/>
        <path id="Path_8762" data-name="Path 8762" d="M367.62,396.054a1.15,1.15,0,0,1-.559.128c-.441,0-.728-.176-.728-.824v-1.223c0-.575-.208-.864-.616-.864a1.417,1.417,0,0,0-.879.384c.008.08.008.16.008.248v2.191h-.784v-2c0-.568-.208-.824-.64-.824a1.355,1.355,0,0,0-.871.376v2.447h-.783v-3.422h.743l.024.359a1.8,1.8,0,0,1,1.152-.447,1.021,1.021,0,0,1,1.023.56,1.926,1.926,0,0,1,1.27-.56c.745,0,1.136.464,1.136,1.359v1.287c0,.312.088.4.288.4a.483.483,0,0,0,.176-.032Z" fill="#00213a"/>
      </g>
    </g>
  </g>
</svg>
