<svg xmlns="http://www.w3.org/2000/svg" width="40" height="19" viewBox="0 0 40 19">
  <g id="Group_6918" data-name="Group 6918" transform="translate(-331.928 -297.094)">
    <g id="Rectangle_1207" data-name="Rectangle 1207">
      <rect id="Rectangle_2767" data-name="Rectangle 2767" width="40" height="19" transform="translate(331.928 297.094)" fill="#fff"/>
      <rect id="Rectangle_2768" data-name="Rectangle 2768" width="39" height="18" transform="translate(332.428 297.594)" fill="none" stroke="#efefef" stroke-width="1"/>
    </g>
    <g id="Very_Soft" data-name="Very Soft" style="isolation: isolate">
      <g id="Group_6925" data-name="Group 6925" style="isolation: isolate">
        <path id="Path_8733" data-name="Path 8733" d="M340.6,303.816h.847l-2.319,5.35H338.9l-2.3-5.35h.848l1.567,3.783Z" fill="#00213a"/>
        <path id="Path_8734" data-name="Path 8734" d="M344.143,308.3l.151.5a2.134,2.134,0,0,1-1.3.391,1.634,1.634,0,0,1-1.783-1.783,1.653,1.653,0,0,1,1.687-1.83c1.08,0,1.591.839,1.391,1.91h-2.3a1.063,1.063,0,0,0,1.159,1.1A1.851,1.851,0,0,0,344.143,308.3Zm-2.135-1.335h1.646a.741.741,0,0,0-.751-.871A.912.912,0,0,0,342.008,306.967Z" fill="#00213a"/>
        <path id="Path_8735" data-name="Path 8735" d="M347.415,305.624l-.017.791-.04.017a.989.989,0,0,0-.455-.1,1.226,1.226,0,0,0-.88.456v2.3h-.783v-3.422h.751l.025.479a1.474,1.474,0,0,1,1.1-.567A1.023,1.023,0,0,1,347.415,305.624Z" fill="#00213a"/>
        <path id="Path_8736" data-name="Path 8736" d="M350.374,305.672h.76l-1.367,3.477c-.384.92-.944,1.768-1.807,1.768a.935.935,0,0,1-.44-.088l.1-.568a.793.793,0,0,0,.248.04c.592,0,.968-.64,1.224-1.263l-1.44-3.366h.825l.966,2.431Z" fill="#00213a"/>
        <path id="Path_8737" data-name="Path 8737" d="M353.3,307.822l.8-.208a1.183,1.183,0,0,0,1.3.888c.631,0,1.015-.288,1.015-.743,0-1.192-2.927-.7-2.927-2.528,0-1.039.92-1.51,1.895-1.51a1.527,1.527,0,0,1,1.735,1.383l-.751.184a.972.972,0,0,0-1.08-.88c-.511,0-.951.233-.951.712,0,1.167,2.927.7,2.927,2.511,0,.951-.784,1.551-1.976,1.551C354.135,309.182,353.439,308.646,353.3,307.822Z" fill="#00213a"/>
        <path id="Path_8738" data-name="Path 8738" d="M357.815,307.375a1.65,1.65,0,0,1,1.759-1.791,1.607,1.607,0,0,1,1.711,1.767,1.674,1.674,0,0,1-1.743,1.831A1.647,1.647,0,0,1,357.815,307.375Zm2.679-.008c0-.744-.36-1.183-.935-1.183s-.953.439-.953,1.183.369,1.215.945,1.215S360.494,308.118,360.494,307.367Z" fill="#00213a"/>
        <path id="Path_8739" data-name="Path 8739" d="M363.07,305.168v.5h1.008v.6H363.07v2.823h-.783v-2.823h-.439v-.6h.439v-.608c0-1.175.592-1.664,1.367-1.664a1.477,1.477,0,0,1,.752.193l-.08.632a.872.872,0,0,0-.472-.128C363.343,304.1,363.07,304.44,363.07,305.168Z" fill="#00213a"/>
        <path id="Path_8740" data-name="Path 8740" d="M367.2,308.918a1.869,1.869,0,0,1-.992.264c-.72,0-1.167-.392-1.167-1.28v-1.631h-.552v-.6h.552v-.92l.783-.1v1.016h1.224v.6h-1.224V307.7c0,.488.153.84.664.84a1.471,1.471,0,0,0,.656-.184Z" fill="#00213a"/>
      </g>
    </g>
  </g>
</svg>
