<svg xmlns="http://www.w3.org/2000/svg" width="30" height="30" viewBox="0 0 30 30"><path d="M15,0A15,15,0,1,1,0,15,15,15,0,0,1,15,0Z" fill="#fff"/><g transform="translate(6.5 -21.5)" opacity="0.996"><path d="M12.188,30a3.929,3.929,0,0,0-2.454.848A5.59,5.59,0,0,0,8.3,32.575a5.59,5.59,0,0,0-1.436-1.727A3.929,3.929,0,0,0,4.408,30,4.5,4.5,0,0,0,0,34.782c0,2.945,2.364,4.96,5.944,8.01.608.518,1.3,1.105,2.013,1.731a.519.519,0,0,0,.683,0c.716-.626,1.405-1.213,2.013-1.732,3.579-3.05,5.943-5.065,5.943-8.01A4.5,4.5,0,0,0,12.188,30Z" transform="translate(0.5 0.5)" fill="none" stroke="#d93e0e" stroke-width="2"/></g></svg>