<svg xmlns="http://www.w3.org/2000/svg" width="21" height="18.773" viewBox="0 0 21 18.773"><defs><style>.a{fill:#D93E0E ;stroke:#D93E0E ;stroke-width:2px;}</style></defs><g transform="translate(1 1)"><path class="a" d="M13.953,30a4.5,4.5,0,0,0-2.809.971A6.4,6.4,0,0,0,9.5,32.948a6.4,6.4,0,0,0-1.644-1.977A4.5,4.5,0,0,0,5.047,30,5.157,5.157,0,0,0,0,35.474c0,3.372,2.707,5.678,6.8,9.17.7.593,1.485,1.265,2.3,1.982a.594.594,0,0,0,.782,0c.82-.717,1.609-1.389,2.3-1.983,4.1-3.492,6.8-5.8,6.8-9.17A5.157,5.157,0,0,0,13.953,30Z" transform="translate(0 -30)"/></g></svg>